/* XPM */
static char * go_down_xpm[] = {
"48 48 331 2",
"  	c None",
". 	c #B45500",
"+ 	c #CF5C00",
"@ 	c #CF5D00",
"# 	c #D05D00",
"$ 	c #D05E00",
"% 	c #D05F00",
"& 	c #B65700",
"* 	c #FBC8A3",
"= 	c #FBC7A1",
"- 	c #FAC59E",
"; 	c #FAC49B",
"> 	c #FAC298",
", 	c #FAC196",
"' 	c #FABE92",
") 	c #FABD8E",
"! 	c #FABB8B",
"~ 	c #F9B887",
"{ 	c #F9B783",
"] 	c #F9B47F",
"^ 	c #D15F00",
"/ 	c #FBC7A0",
"( 	c #FAC69E",
"_ 	c #FAC49C",
": 	c #FAC399",
"< 	c #FABF93",
"[ 	c #FABE90",
"} 	c #FABC8C",
"| 	c #F9BA89",
"1 	c #FAB885",
"2 	c #FAB581",
"3 	c #F9B47E",
"4 	c #D16000",
"5 	c #FAC59D",
"6 	c #FAC297",
"7 	c #FAC094",
"8 	c #FABF91",
"9 	c #FABB8A",
"0 	c #FAB987",
"a 	c #FAB883",
"b 	c #FAB680",
"c 	c #F9B37C",
"d 	c #D26100",
"e 	c #FAC49A",
"f 	c #FAC398",
"g 	c #FAC296",
"h 	c #FABD8C",
"i 	c #FABA88",
"j 	c #FAB985",
"k 	c #FAB681",
"l 	c #F9B57E",
"m 	c #F9B279",
"n 	c #D26200",
"o 	c #FAC093",
"p 	c #FAC091",
"q 	c #FABE8E",
"r 	c #FABB89",
"s 	c #FABA86",
"t 	c #F9B67F",
"u 	c #F9B57C",
"v 	c #F9B277",
"w 	c #D36400",
"x 	c #FAC092",
"y 	c #FABF90",
"z 	c #FABC89",
"A 	c #FAB780",
"B 	c #F9B479",
"C 	c #F9B275",
"D 	c #D46500",
"E 	c #FABC8A",
"F 	c #FABB88",
"G 	c #FABB86",
"H 	c #FAB983",
"I 	c #FAB880",
"J 	c #F9B67D",
"K 	c #F9B376",
"L 	c #F9B072",
"M 	c #D46600",
"N 	c #FABD8B",
"O 	c #FABB87",
"P 	c #FABB85",
"Q 	c #F9B77D",
"R 	c #F9B57A",
"S 	c #F9B477",
"T 	c #F9B273",
"U 	c #F9B070",
"V 	c #D56800",
"W 	c #D36300",
"X 	c #FAB981",
"Y 	c #F9B87F",
"Z 	c #F9B77C",
"` 	c #F9B579",
" .	c #FAB477",
"..	c #FAB374",
"+.	c #F9B170",
"@.	c #F9AF6D",
"#.	c #D66900",
"$.	c #FABA84",
"%.	c #FAB980",
"&.	c #F9B87E",
"*.	c #FAB77C",
"=.	c #FAB579",
"-.	c #FAB476",
";.	c #FAB373",
">.	c #F9B270",
",.	c #F9B06D",
"'.	c #F9AF6A",
").	c #D66A00",
"!.	c #FAB679",
"~.	c #FAB577",
"{.	c #FAB475",
"].	c #F9B372",
"^.	c #F9B16D",
"/.	c #F9B06A",
"(.	c #F9AD66",
"_.	c #D76C00",
":.	c #F9B67B",
"<.	c #FAB578",
"[.	c #FAB576",
"}.	c #FAB474",
"|.	c #F9B26F",
"1.	c #F9B16C",
"2.	c #F9B069",
"3.	c #F9AE66",
"4.	c #F9AC63",
"5.	c #D86D00",
"6.	c #D56700",
"7.	c #F9B370",
"8.	c #F9B26E",
"9.	c #F9B16B",
"0.	c #F9AF66",
"a.	c #F9AE63",
"b.	c #F9AC60",
"c.	c #D96E00",
"d.	c #F9B371",
"e.	c #F9B067",
"f.	c #F9AE64",
"g.	c #F9AE62",
"h.	c #F9AC5F",
"i.	c #F9AC5D",
"j.	c #D97000",
"k.	c #F9B16F",
"l.	c #F9B16E",
"m.	c #F9B068",
"n.	c #F9AE61",
"o.	c #F9AC5E",
"p.	c #F9AB5B",
"q.	c #F9AA58",
"r.	c #DA7100",
"s.	c #F9AF6B",
"t.	c #F9AF68",
"u.	c #F9AF65",
"v.	c #F9AD5F",
"w.	c #F9AC5B",
"x.	c #F9AB58",
"y.	c #F9AA55",
"z.	c #DB7300",
"A.	c #D76B00",
"B.	c #F9AE65",
"C.	c #F9AC59",
"D.	c #F9AB56",
"E.	c #F9AA54",
"F.	c #F9A851",
"G.	c #DC7400",
"H.	c #F9AC62",
"I.	c #F9AB57",
"J.	c #F9AA53",
"K.	c #F9A950",
"L.	c #F9A84D",
"M.	c #DC7600",
"N.	c #F9AB5D",
"O.	c #F9AB5C",
"P.	c #F9AB5A",
"Q.	c #F9AA56",
"R.	c #F9AA51",
"S.	c #F9A94F",
"T.	c #F9A84C",
"U.	c #F9A84A",
"V.	c #DD7700",
"W.	c #E07200",
"X.	c #F8A958",
"Y.	c #F9A957",
"Z.	c #F9A955",
"`.	c #F9AA52",
" +	c #F9A748",
".+	c #F9A646",
"++	c #E47C00",
"@+	c #B35B00",
"#+	c #D06500",
"$+	c #D76A00",
"%+	c #DF7100",
"&+	c #EE7900",
"*+	c #F9A754",
"=+	c #F9A853",
"-+	c #F9A84F",
";+	c #F9A84E",
">+	c #F9A746",
",+	c #F9A644",
"'+	c #F9A642",
")+	c #F18500",
"!+	c #E57E00",
"~+	c #DF7B00",
"{+	c #DF7A00",
"]+	c #DB7900",
"^+	c #C66E00",
"/+	c #924B08",
"(+	c #E18127",
"_+	c #F59E4F",
":+	c #F89F4F",
"<+	c #F8A050",
"[+	c #F8A250",
"}+	c #F8A351",
"|+	c #F8A350",
"1+	c #F8A450",
"2+	c #F9A54F",
"3+	c #F9A54E",
"4+	c #F9A64D",
"5+	c #F9A74C",
"6+	c #F9A74B",
"7+	c #F9A74A",
"8+	c #F9A23E",
"9+	c #F99D32",
"0+	c #F89927",
"a+	c #F8951D",
"b+	c #F89114",
"c+	c #F78E0C",
"d+	c #F78B04",
"e+	c #F78900",
"f+	c #F78A00",
"g+	c #F48800",
"h+	c #E57F00",
"i+	c #A55D17",
"j+	c #834306",
"k+	c #E28125",
"l+	c #F49D4B",
"m+	c #F89E4B",
"n+	c #F8A04C",
"o+	c #F8A14C",
"p+	c #F8A24C",
"q+	c #F9A34B",
"r+	c #F9A34A",
"s+	c #F8A041",
"t+	c #F89A33",
"u+	c #F79425",
"v+	c #F78F18",
"w+	c #F78A0C",
"x+	c #F78601",
"y+	c #F78600",
"z+	c #F78800",
"A+	c #F78B00",
"B+	c #F48A00",
"C+	c #E68100",
"D+	c #965111",
"E+	c #854407",
"F+	c #E38223",
"G+	c #F59C47",
"H+	c #F89E47",
"I+	c #F89F47",
"J+	c #F89D41",
"K+	c #F89632",
"L+	c #F78F22",
"M+	c #F78914",
"N+	c #F68305",
"O+	c #F68200",
"P+	c #F68300",
"Q+	c #F78400",
"R+	c #F78700",
"S+	c #F78C00",
"T+	c #F88C00",
"U+	c #F88D00",
"V+	c #F48B00",
"W+	c #E78300",
"X+	c #985312",
"Y+	c #864608",
"Z+	c #E3801E",
"`+	c #F38F2C",
" @	c #F6881B",
".@	c #F6820B",
"+@	c #F67D00",
"@@	c #F67F00",
"#@	c #F68000",
"$@	c #F88E00",
"%@	c #F58D00",
"&@	c #E78400",
"*@	c #9A5514",
"=@	c #89470A",
"-@	c #F27A00",
";@	c #F67E00",
">@	c #F68100",
",@	c #F78500",
"'@	c #F88F00",
")@	c #F58E00",
"!@	c #E88600",
"~@	c #9B5514",
"{@	c #8A480A",
"]@	c #E07300",
"^@	c #F27C00",
"/@	c #F89000",
"(@	c #F58F00",
"_@	c #E88700",
":@	c #9C5615",
"<@	c #8B490B",
"[@	c #E17500",
"}@	c #F27E00",
"|@	c #F89100",
"1@	c #F59000",
"2@	c #E98800",
"3@	c #9C5715",
"4@	c #8E4B0C",
"5@	c #E27700",
"6@	c #F38000",
"7@	c #F59100",
"8@	c #E98900",
"9@	c #9D5816",
"0@	c #8F4D0D",
"a@	c #E37900",
"b@	c #F38200",
"c@	c #914E0F",
"d@	c #E37B00",
"e@	c #F38400",
"f@	c #924F0F",
"g@	c #E47D00",
"h@	c #F48600",
"i@	c #935010",
"j@	c #955111",
"k@	c #E68000",
"l@	c #E68200",
"m@	c #975312",
"n@	c #E48200",
"o@	c #E48300",
"p@	c #9B5614",
"                                                                                                ",
"                                                                                                ",
"                                  . + + @ @ # # # $ $ $ $ % &                                   ",
"                                  + * = - ; > , ' ) ! ~ { ] ^                                   ",
"                                  # / ( _ : , < [ } | 1 2 3 4                                   ",
"                                  $ 5 ; : 6 7 8 ) 9 0 a b c d                                   ",
"                                  % e f g 7 8 ) h i j k l m n                                   ",
"                                  ^ 6 g o p q h r s a t u v w                                   ",
"                                  4 o x y q h z s a A u B C D                                   ",
"                                  d y q h E F G H I J B K L M                                   ",
"                                  n h N z O P H I Q R S T U V                                   ",
"                                  W F O P H X Y Z `  ...+.@.#.                                  ",
"                                  w $.H X %.&.*.=.-.;.>.,.'.).                                  ",
"                                  D I Y &.*.!.~.{.].>.^./.(._.                                  ",
"                                  M Z :.=.<.[.}.].|.1.2.3.4.5.                                  ",
"                                  6.<.~.{.}.].7.8.9.2.0.a.b.c.                                  ",
"                                  V ;.].d.7.8.9.2.e.f.g.h.i.j.                                  ",
"                                  #.k.l.^.9.2.m.0.a.n.o.p.q.r.                                  ",
"                                  ).s.2.t.0.u.a.g.v.i.w.x.y.z.                                  ",
"                                  A.3.B.f.g.n.v.i.w.C.D.E.F.G.                                  ",
"                                  _.H.b.h.o.i.w.C.I.y.J.K.L.M.                                  ",
"                                  5.N.O.p.P.x.Q.y.J.R.S.T.U.V.                                  ",
"                                  W.X.Y.Q.Z.E.`.R.S.L.U. +.+++                                  ",
"                @+#+6.V #.$+_.5.%+&+*+=+F.F.-+;+T.U. +>+,+'+)+!+~+~+~+~+~+{+]+^+                ",
"                /+(+_+:+<+[+}+|+1+2+2+3+4+5+6+7+8+9+0+a+b+c+d+e+f+f+f+f+f+g+h+i+                ",
"                  j+k+l+m+n+o+p+q+q+r+s+t+u+v+w+x+y+z+z+e+f+f+A+A+A+A+A+B+C+D+                  ",
"                    E+F+G+H+I+J+K+L+M+N+O+P+Q+y+R+z+e+f+f+A+S+S+T+U+U+V+W+X+                    ",
"                      Y+Z+`+ @.@+@@@#@O+P+Q+y+R+z+e+f+A+S+T+U+$@$@$@%@&@*@                      ",
"                        =@%+-@+@;@#@>@O+Q+,@y+z+e+f+A+S+U+$@$@'@'@)@!@~@                        ",
"                          {@]@^@@@#@O+P+,@y+z+e+f+A+T+U+$@'@/@/@(@_@:@                          ",
"                            <@[@}@>@O+Q+y+R+z+f+A+S+U+$@'@/@|@1@2@3@                            ",
"                              4@5@6@P+,@y+z+e+f+S+U+$@'@/@|@7@8@9@                              ",
"                                0@a@b@,@R+z+f+A+T+$@'@/@|@7@8@9@                                ",
"                                  c@d@e@R+e+f+S+U+$@/@|@7@8@9@                                  ",
"                                    f@g@h@e+A+S+$@'@/@1@8@9@                                    ",
"                                      i@h+g+A+T+$@'@(@2@9@                                      ",
"                                        j@k@B+U+$@)@_@3@                                        ",
"                                          D+l@V+%@!@:@                                          ",
"                                            m@n@o@~@                                            ",
"                                              *@p@                                              ",
"                                                                                                ",
"                                                                                                ",
"                                                                                                ",
"                                                                                                ",
"                                                                                                ",
"                                                                                                ",
"                                                                                                ",
"                                                                                                "};
