/* XPM */
static char * go_up_xpm[] = {
"48 48 317 2",
"  	c None",
". 	c #A45102",
"+ 	c #A05004",
"@ 	c #E08E49",
"# 	c #E18D47",
"$ 	c #E48F49",
"% 	c #F8BE90",
"& 	c #F8BB8C",
"* 	c #E48D44",
"= 	c #A05105",
"- 	c #E5904A",
"; 	c #F8BF91",
"> 	c #FABD8E",
", 	c #FABB8A",
"' 	c #F7B987",
") 	c #E38C41",
"! 	c #A25307",
"~ 	c #FABE8E",
"{ 	c #FABD8C",
"] 	c #FABA88",
"^ 	c #FAB985",
"/ 	c #F7B681",
"( 	c #E48C3F",
"_ 	c #A35509",
": 	c #E59049",
"< 	c #FABB89",
"[ 	c #FABA86",
"} 	c #FAB883",
"| 	c #F9B67F",
"1 	c #F7B47C",
"2 	c #E38A3B",
"3 	c #F8BF90",
"4 	c #FABC89",
"5 	c #FAB780",
"6 	c #F9B57C",
"7 	c #F9B479",
"8 	c #F7B175",
"9 	c #E48B39",
"0 	c #A5580B",
"a 	c #A15105",
"b 	c #E49048",
"c 	c #F8BD8E",
"d 	c #FABC8A",
"e 	c #FABB88",
"f 	c #FAB983",
"g 	c #FAB880",
"h 	c #F9B67D",
"i 	c #F9B376",
"j 	c #F9B072",
"k 	c #F7AE6F",
"l 	c #E48935",
"m 	c #A6580C",
"n 	c #E48F46",
"o 	c #F8BD8C",
"p 	c #FABD8B",
"q 	c #FABB87",
"r 	c #FABA85",
"s 	c #F9B77D",
"t 	c #F9B57A",
"u 	c #F9B477",
"v 	c #F9B273",
"w 	c #F9B070",
"x 	c #F9AE6C",
"y 	c #F6AC69",
"z 	c #E48832",
"A 	c #A85B0E",
"B 	c #E48F45",
"C 	c #F8BC8A",
"D 	c #FAB881",
"E 	c #F9B87F",
"F 	c #F9B67C",
"G 	c #F9B579",
"H 	c #FAB374",
"I 	c #F9AF6D",
"J 	c #F9AD69",
"K 	c #F9AC66",
"L 	c #F6A962",
"M 	c #E4882F",
"N 	c #A95D10",
"O 	c #E48D43",
"P 	c #F7B986",
"Q 	c #FABA84",
"R 	c #F9B77E",
"S 	c #F9B77C",
"T 	c #FAB476",
"U 	c #FAB373",
"V 	c #F9B170",
"W 	c #F9AE6A",
"X 	c #F9AB63",
"Y 	c #F9A95F",
"Z 	c #F6A65B",
"` 	c #E4872C",
" .	c #AA5E11",
"..	c #E48C41",
"+.	c #F7B883",
"@.	c #FAB882",
"#.	c #F9B77F",
"$.	c #FAB477",
"%.	c #FAB475",
"&.	c #F9B272",
"*.	c #F9B270",
"=.	c #F9B06D",
"-.	c #F9AF6A",
";.	c #F9AD66",
">.	c #F9AC63",
",.	c #F9AA60",
"'.	c #F9A95D",
").	c #F8A758",
"!.	c #F6A455",
"~.	c #E48628",
"{.	c #AB5E11",
"].	c #E48B3F",
"^.	c #F7B57E",
"/.	c #F9B67E",
"(.	c #F9B57B",
"_.	c #FAB578",
":.	c #F9B372",
"<.	c #F9B26F",
"[.	c #F9B06C",
"}.	c #F9AE69",
"|.	c #F9AB60",
"1.	c #F8A859",
"2.	c #F8A656",
"3.	c #F8A452",
"4.	c #F5A24F",
"5.	c #E48625",
"6.	c #AD6013",
"7.	c #E3893C",
"8.	c #F7B279",
"9.	c #F9B379",
"0.	c #F9B478",
"a.	c #FAB375",
"b.	c #F9B16E",
"c.	c #F9B06B",
"d.	c #F9AF69",
"e.	c #F9AE66",
"f.	c #F9AA5D",
"g.	c #F9A95A",
"h.	c #F8A756",
"i.	c #F8A553",
"j.	c #F8A44F",
"k.	c #F8A24C",
"l.	c #F6A048",
"m.	c #E48622",
"n.	c #AD6114",
"o.	c #E3883A",
"p.	c #F6B075",
"q.	c #F9B175",
"r.	c #F9B275",
"s.	c #F9B274",
"t.	c #F9B271",
"u.	c #F9AF6B",
"v.	c #F9AF67",
"w.	c #F9AD64",
"x.	c #F9AC62",
"y.	c #F9AC5F",
"z.	c #F9AB5D",
"A.	c #F8A959",
"B.	c #F8A856",
"C.	c #F9A753",
"D.	c #F9A54F",
"E.	c #F9A44D",
"F.	c #F9A249",
"G.	c #F89F45",
"H.	c #F59D42",
"I.	c #E5851F",
"J.	c #AF6316",
"K.	c #E28637",
"L.	c #F6AD70",
"M.	c #F9AE70",
"N.	c #F9AF71",
"O.	c #F9B071",
"P.	c #F9B16F",
"Q.	c #F9B06E",
"R.	c #F9AF68",
"S.	c #F9AD63",
"T.	c #F9AD61",
"U.	c #F9AB5E",
"V.	c #F9AA5B",
"W.	c #F9A958",
"X.	c #F9A856",
"Y.	c #F9A349",
"Z.	c #F8A145",
"`.	c #F89F42",
" +	c #F89E3F",
".+	c #F59C3C",
"++	c #E4841C",
"@+	c #AF6417",
"#+	c #B05800",
"$+	c #CE6100",
"%+	c #D36300",
"&+	c #D36400",
"*+	c #D46500",
"=+	c #D46600",
"-+	c #D56800",
";+	c #DD6C00",
">+	c #ED7200",
",+	c #F9AE68",
"'+	c #F9AD65",
")+	c #F9AD62",
"!+	c #F9AB5B",
"~+	c #F9A855",
"{+	c #F9A752",
"]+	c #EF7C00",
"^+	c #E17600",
"/+	c #DB7200",
"(+	c #DB7300",
"_+	c #D77200",
":+	c #C06800",
"<+	c #DE6E00",
"[+	c #F9AC65",
"}+	c #F9AC64",
"|+	c #F9AC61",
"1+	c #F9AA59",
"2+	c #F9A956",
"3+	c #F9A854",
"4+	c #F9A751",
"5+	c #F9A74F",
"6+	c #E27600",
"7+	c #D76B00",
"8+	c #F9AA5F",
"9+	c #F9AA5E",
"0+	c #F9A957",
"a+	c #F9A955",
"b+	c #F9A853",
"c+	c #F9A750",
"d+	c #F9A64D",
"e+	c #F9A54B",
"f+	c #DC7400",
"g+	c #D76C00",
"h+	c #F9A95C",
"i+	c #F9A95B",
"j+	c #F8A958",
"k+	c #F9A851",
"l+	c #F9A64C",
"m+	c #F9A64A",
"n+	c #F9A547",
"o+	c #DC7500",
"p+	c #D86D00",
"q+	c #F8A757",
"r+	c #F9A754",
"s+	c #F9A548",
"t+	c #F8A446",
"u+	c #F8A443",
"v+	c #DD7600",
"w+	c #F9A651",
"x+	c #F9A64F",
"y+	c #F9A54E",
"z+	c #F9A54A",
"A+	c #F8A444",
"B+	c #F8A442",
"C+	c #F9A13D",
"D+	c #DD7800",
"E+	c #D96E00",
"F+	c #F8A34E",
"G+	c #F9A44C",
"H+	c #F9A44B",
"I+	c #F89F3E",
"J+	c #F89B32",
"K+	c #F79527",
"L+	c #F7911D",
"M+	c #F88E14",
"N+	c #F78B0C",
"O+	c #F78804",
"P+	c #DE7900",
"Q+	c #D96F00",
"R+	c #F89D41",
"S+	c #F89833",
"T+	c #F79125",
"U+	c #F78C18",
"V+	c #F6870C",
"W+	c #F68201",
"X+	c #F68200",
"Y+	c #F68400",
"Z+	c #F78400",
"`+	c #F78500",
" @	c #F78600",
".@	c #F78700",
"+@	c #DF7A00",
"@@	c #D97000",
"#@	c #F68005",
"$@	c #F67E00",
"%@	c #F68000",
"&@	c #F68300",
"*@	c #F78800",
"=@	c #DF7B00",
"-@	c #DA7100",
";@	c #F67F00",
">@	c #F78900",
",@	c #E07C00",
"'@	c #F68100",
")@	c #F78A00",
"!@	c #E07D00",
"~@	c #DA7200",
"{@	c #F78B00",
"]@	c #E17E00",
"^@	c #F78C00",
"/@	c #F88C00",
"(@	c #E17F00",
"_@	c #F88D00",
":@	c #E28000",
"<@	c #F88E00",
"[@	c #E28100",
"}@	c #F88F00",
"|@	c #E38200",
"1@	c #F89000",
"2@	c #E38300",
"3@	c #E48300",
"4@	c #F89100",
"5@	c #E48400",
"6@	c #F89200",
"7@	c #DC7600",
"8@	c #C96D00",
"9@	c #DD7700",
"0@	c #DE7800",
"a@	c #DE7A00",
"b@	c #D57B00",
"                                                                                                ",
"                                                                                                ",
"                                                                                                ",
"                                                . .                                             ",
"                                              + @ # +                                           ",
"                                            + $ % & * =                                         ",
"                                          + - ; > , ' ) !                                       ",
"                                        + - ; ~ { ] ^ / ( _                                     ",
"                                      = : ; ~ { < [ } | 1 2 _                                   ",
"                                    = : 3 ~ { 4 [ } 5 6 7 8 9 0                                 ",
"                                  a b c { d e [ f g h 7 i j k l m                               ",
"                                a n o p 4 q r f g s t u v w x y z A                             ",
"                              a B C e q r f D E F G u H w I J K L M N                           ",
"                            a O P r Q f D g R S G T U V I W K X Y Z `  .                        ",
"                          a ..+.@.D g #.R S G $.%.&.*.=.-.;.>.,.'.).!.~.{.                      ",
"                        a ].^././.h F (.G _.T H :.<.[.}.;.>.|.'.1.2.3.4.5.6.                    ",
"                      a 7.8.9.9.7 7 0.u a.H &.*.b.c.d.e.>.|.f.g.h.i.j.k.l.m.n.                  ",
"                    a o.p.q.q.r.r.s.v &.t.*.b.u.d.v.w.x.y.z.A.B.C.D.E.F.G.H.I.J.                ",
"                  = K.L.M.N.N.O.w w P.Q.=.u.d.R.e.S.T.U.V.W.X.C.D.E.Y.Z.`. +.+++@+              ",
"                  #+$+%+&+*+=+=+-+;+>+}.,+;.'+S.)+y.z.!+W.~+{+]+^+/+/+(+(+(+(+_+:+              ",
"                                    <+[+}+x.|+y.z.!+1+2+3+4+5+6+                                ",
"                                    7+|.8+9+z.V.1+0+a+b+c+d+e+f+                                ",
"                                    g+h+i+g.j+X.~+b+k+5+l+m+n+o+                                ",
"                                    p+q+h.~+r+{+4+5+d+m+s+t+u+v+                                ",
"                                    p+i.w+w+x+y+l+z+s+t+A+B+C+D+                                ",
"                                    E+F+E.G+H+z+I+J+K+L+M+N+O+P+                                ",
"                                    Q+R+S+T+U+V+W+X+Y+Z+`+ @.@+@                                ",
"                                    @@#@$@%@%@X+&@Y+`+ @ @.@*@=@                                ",
"                                    -@$@;@%@X+X+Y+`+ @.@*@*@>@,@                                ",
"                                    -@;@%@'@X+Y+`+ @.@*@>@)@)@!@                                ",
"                                    ~@%@'@X+&@Z+ @.@*@>@)@)@{@]@                                ",
"                                    /+%@X+&@Z+`+ @*@>@)@{@^@/@(@                                ",
"                                    (+'@X+Y+`+ @.@*@)@)@^@/@_@:@                                ",
"                                    (+X+&@Z+ @.@*@>@)@{@/@_@<@[@                                ",
"                                    f+X+&@`+ @.@*@)@{@^@_@<@}@|@                                ",
"                                    o+X+Z+`+ @*@>@)@^@_@<@}@1@2@                                ",
"                                    o+&@Z+ @.@*@)@{@^@_@<@1@1@3@                                ",
"                                    o+&@`+ @.@>@)@{@/@<@}@1@4@5@                                ",
"                                    o+Y+`+ @*@>@)@^@_@<@}@1@6@5@                                ",
"                                    7@Y+`+ @*@>@{@^@_@<@1@4@6@5@                                ",
"                                    8@9@0@a@=@,@!@]@(@[@|@2@5@b@                                ",
"                                                                                                ",
"                                                                                                ",
"                                                                                                ",
"                                                                                                ",
"                                                                                                ",
"                                                                                                ",
"                                                                                                "};
