/* XPM */
static char * rotate_right_xpm[] = {
"48 48 648 2",
"  	c None",
". 	c #0D2B6F",
"+ 	c #2C5192",
"@ 	c #9FC9E7",
"# 	c #2D5292",
"$ 	c #A9CFE8",
"% 	c #9CC6E6",
"& 	c #2C5292",
"* 	c #A5CCE8",
"= 	c #8FC0E3",
"- 	c #99C3E6",
"; 	c #2B5092",
"> 	c #A2CAE8",
", 	c #7DB5E0",
"' 	c #8ABCE3",
") 	c #95C2E8",
"! 	c #2A5092",
"~ 	c #A0C8E8",
"{ 	c #79B1E0",
"] 	c #77B1E1",
"^ 	c #86BAE4",
"/ 	c #92BFE8",
"( 	c #2A5093",
"_ 	c #274A8B",
": 	c #3D65A1",
"< 	c #4E78B3",
"[ 	c #5F8AC1",
"} 	c #6694C8",
"| 	c #6695CA",
"1 	c #9CC5E7",
"2 	c #76AFDF",
"3 	c #74AEE0",
"4 	c #74AEE1",
"5 	c #82B8E5",
"6 	c #8FBDE8",
"7 	c #295092",
"8 	c #0F2E71",
"9 	c #3B629F",
"0 	c #668FC2",
"a 	c #87AFD7",
"b 	c #90B8DD",
"c 	c #8DB7DE",
"d 	c #89B6DF",
"e 	c #85B5DE",
"f 	c #84B5DF",
"g 	c #84B6E1",
"h 	c #84B6E2",
"i 	c #70ABDF",
"j 	c #70ACE1",
"k 	c #70ABE2",
"l 	c #6FABE3",
"m 	c #7EB5E6",
"n 	c #8DBCEA",
"o 	c #284F92",
"p 	c #3D649F",
"q 	c #7DA4CF",
"r 	c #89B1D8",
"s 	c #82AFD8",
"t 	c #77ACD9",
"u 	c #72A9DA",
"v 	c #72A9DB",
"w 	c #70AADB",
"x 	c #70A8DC",
"y 	c #6FA9DD",
"z 	c #6FA9DE",
"A 	c #6EA9DF",
"B 	c #6DA9E1",
"C 	c #6DAAE1",
"D 	c #6DA9E2",
"E 	c #6CA9E3",
"F 	c #6BAAE5",
"G 	c #7BB3EA",
"H 	c #8ABBEC",
"I 	c #274D92",
"J 	c #264788",
"K 	c #7299C6",
"L 	c #85ACD3",
"M 	c #79A9D7",
"N 	c #71A7D7",
"O 	c #6EA7D8",
"P 	c #6EA6D9",
"Q 	c #6EA6DA",
"R 	c #6DA6DA",
"S 	c #6DA6DB",
"T 	c #6CA6DC",
"U 	c #6BA6DD",
"V 	c #6AA6DE",
"W 	c #6AA6DF",
"X 	c #69A6E1",
"Y 	c #69A6E2",
"Z 	c #69A7E3",
"` 	c #68A7E5",
" .	c #67A7E6",
"..	c #67A8E6",
"+.	c #78B2EB",
"@.	c #88B9EC",
"#.	c #264D92",
"$.	c #375A96",
"%.	c #7DA1CC",
"&.	c #78A6D2",
"*.	c #6EA4D5",
"=.	c #6DA2D5",
"-.	c #6CA2D6",
";.	c #6BA3D6",
">.	c #6BA2D8",
",.	c #6AA3D9",
"'.	c #69A3D9",
").	c #69A3DB",
"!.	c #69A2DC",
"~.	c #68A2DD",
"{.	c #67A3DE",
"].	c #67A3E0",
"^.	c #66A3E1",
"/.	c #66A4E1",
"(.	c #66A5E3",
"_.	c #65A5E4",
":.	c #64A5E6",
"<.	c #63A7E8",
"[.	c #63A6EA",
"}.	c #7FB7EE",
"|.	c #79ADE5",
"1.	c #456AA3",
"2.	c #7CA1CB",
"3.	c #71A2D1",
"4.	c #6A9FD3",
"5.	c #6AA0D4",
"6.	c #6A9FD4",
"7.	c #689FD5",
"8.	c #689FD6",
"9.	c #679FD7",
"0.	c #669FD8",
"a.	c #66A0DA",
"b.	c #65A0DB",
"c.	c #64A0DC",
"d.	c #64A1DD",
"e.	c #64A1DF",
"f.	c #62A1E0",
"g.	c #62A2E2",
"h.	c #62A2E4",
"i.	c #62A3E5",
"j.	c #61A4E8",
"k.	c #61A5E9",
"l.	c #71ADEB",
"m.	c #81B4EA",
"n.	c #254C91",
"o.	c #3B609A",
"p.	c #779CC8",
"q.	c #6A9CCF",
"r.	c #669BD0",
"s.	c #669CD1",
"t.	c #659BD2",
"u.	c #659CD3",
"v.	c #649BD4",
"w.	c #639BD5",
"x.	c #639CD7",
"y.	c #639CD8",
"z.	c #629CD9",
"A.	c #619DDB",
"B.	c #619DDC",
"C.	c #609EDE",
"D.	c #609EDF",
"E.	c #5F9FE1",
"F.	c #5F9FE3",
"G.	c #5FA1E4",
"H.	c #5EA1E7",
"I.	c #5EA2E9",
"J.	c #6DA9E8",
"K.	c #7CAEE6",
"L.	c #234B8F",
"M.	c #284B8B",
"N.	c #7195C3",
"O.	c #6898CC",
"P.	c #6398CE",
"Q.	c #6397CF",
"R.	c #6297D0",
"S.	c #6298D0",
"T.	c #6199D2",
"U.	c #6098D2",
"V.	c #6098D3",
"W.	c #5F98D5",
"X.	c #5E98D6",
"Y.	c #5F98D6",
"Z.	c #639BD6",
"`.	c #679BD6",
" +	c #6B9DD6",
".+	c #6B9ED7",
"++	c #6BA0DA",
"@+	c #5C9DE1",
"#+	c #5C9EE3",
"$+	c #5C9FE5",
"%+	c #5B9FE7",
"&+	c #69A4E5",
"*+	c #75A8E1",
"=+	c #22488D",
"-+	c #143377",
";+	c #688CBD",
">+	c #6895C9",
",+	c #6093CB",
"'+	c #5F94CC",
")+	c #5E93CD",
"!+	c #5D94CF",
"~+	c #5D94D0",
"{+	c #5D95D1",
"]+	c #5D96D3",
"^+	c #6495CD",
"/+	c #6993C7",
"(+	c #6990C5",
"_+	c #5E88C0",
":+	c #5079B5",
"<+	c #4872B1",
"[+	c #4973B2",
"}+	c #719CD1",
"|+	c #599BE2",
"1+	c #599CE4",
"2+	c #589DE6",
"3+	c #64A1E3",
"4+	c #6FA0DA",
"5+	c #20468B",
"6+	c #476BA4",
"7+	c #6991C2",
"8+	c #5D90C9",
"9+	c #5C90C9",
"0+	c #5B90C9",
"a+	c #5A90CA",
"b+	c #5A90CC",
"c+	c #5A90CD",
"d+	c #5A91CE",
"e+	c #5C90CE",
"f+	c #648DC3",
"g+	c #5179B3",
"h+	c #24478A",
"i+	c #0D2A6E",
"j+	c #0C2969",
"k+	c #0B2765",
"l+	c #6B96CE",
"m+	c #5699E2",
"n+	c #559AE4",
"o+	c #619CE0",
"p+	c #6A9AD5",
"q+	c #1F4589",
"r+	c #18387B",
"s+	c #6588B9",
"t+	c #5D8EC6",
"u+	c #588CC7",
"v+	c #578BC7",
"w+	c #578CC8",
"x+	c #578DCA",
"y+	c #578DCB",
"z+	c #568DCC",
"A+	c #5E8CC5",
"B+	c #5B81B8",
"C+	c #315797",
"D+	c #0D2B6E",
"E+	c #6791CB",
"F+	c #5397E2",
"G+	c #5E98DC",
"H+	c #6392CF",
"I+	c #1E4388",
"J+	c #4569A3",
"K+	c #618ABF",
"L+	c #5589C5",
"M+	c #5488C5",
"N+	c #5588C5",
"O+	c #5388C7",
"P+	c #5388C8",
"Q+	c #5389C9",
"R+	c #5989C5",
"S+	c #5479B2",
"T+	c #18397E",
"U+	c #0C2869",
"V+	c #638FC8",
"W+	c #5A94D9",
"X+	c #5E8CC9",
"Y+	c #1D4185",
"Z+	c #0B245F",
"`+	c #597CB1",
" @	c #5686C3",
".@	c #5285C3",
"+@	c #5284C2",
"@@	c #5084C4",
"#@	c #5084C5",
"$@	c #5085C6",
"%@	c #5185C5",
"&@	c #567CB4",
"*@	c #224487",
"=@	c #0C2662",
"-@	c #5F8BC6",
";@	c #5987C5",
">@	c #1B3E83",
",@	c #0B2560",
"'@	c #224384",
")@	c #5B7FB5",
"!@	c #4F82C2",
"~@	c #4F82C1",
"{@	c #4D80C0",
"]@	c #4C80C0",
"^@	c #4C81C3",
"/@	c #4C81C4",
"(@	c #547DB8",
"_@	c #355997",
":@	c #0D2A6D",
"<@	c #5480BE",
"[@	c #1B3D81",
"}@	c #0B2561",
"|@	c #395C99",
"1@	c #567EB8",
"2@	c #4C7EBF",
"3@	c #4B7DBE",
"4@	c #497DBE",
"5@	c #497DC0",
"6@	c #497EC1",
"7@	c #486CA7",
"8@	c #0F2E72",
"9@	c #1A3B80",
"0@	c #0C2561",
"a@	c #4265A0",
"b@	c #507CBA",
"c@	c #487ABD",
"d@	c #477ABC",
"e@	c #477ABD",
"f@	c #467ABE",
"g@	c #457BBF",
"h@	c #4B79B9",
"i@	c #375A99",
"j@	c #0C296B",
"k@	c #4567A2",
"l@	c #4A79B9",
"m@	c #4477BB",
"n@	c #4375BA",
"o@	c #4376BB",
"p@	c #4178BE",
"q@	c #4973B1",
"r@	c #26498A",
"s@	c #0C2763",
"t@	c #4869A4",
"u@	c #4475B8",
"v@	c #4174B9",
"w@	c #4073B9",
"x@	c #4072B8",
"y@	c #3F73BA",
"z@	c #3F74BC",
"A@	c #4268A6",
"B@	c #4769A3",
"C@	c #3F71B7",
"D@	c #3E70B7",
"E@	c #3D6FB6",
"F@	c #3D70B8",
"G@	c #366BB7",
"H@	c #385C9B",
"I@	c #0F2F72",
"J@	c #3868B0",
"K@	c #3A6AB2",
"L@	c #3B6CB4",
"M@	c #3D6EB6",
"N@	c #3E70B8",
"O@	c #4072BB",
"P@	c #4174BD",
"Q@	c #4175BD",
"R@	c #41629E",
"S@	c #3D6EB4",
"T@	c #3B6DB5",
"U@	c #3A6DB4",
"V@	c #396CB4",
"W@	c #3267B2",
"X@	c #275FAE",
"Y@	c #385E9F",
"Z@	c #16367A",
"`@	c #1F448A",
" #	c #5692DD",
".#	c #4E98ED",
"+#	c #4F99EF",
"@#	c #509BF1",
"##	c #519DF3",
"$#	c #529EF5",
"%#	c #59A1F5",
"&#	c #629FE8",
"*#	c #395B98",
"=#	c #3F6DB0",
"-#	c #386AB3",
";#	c #3669B3",
">#	c #3064AE",
",#	c #265CAA",
"'#	c #275EAE",
")#	c #3660A3",
"!#	c #1D3F81",
"~#	c #2E59A1",
"{#	c #4B92E6",
"]#	c #3B98FF",
"^#	c #4C9FFB",
"/#	c #5A94DE",
"(#	c #325392",
"_#	c #3D69AC",
":#	c #3467B1",
"<#	c #3264AF",
"[#	c #2558A7",
"}#	c #265BAB",
"|#	c #275EAF",
"1#	c #3461A9",
"2#	c #244688",
"3#	c #3B6BB3",
"4#	c #4191EE",
"5#	c #54A1F8",
"6#	c #5088D1",
"7#	c #0D296B",
"8#	c #0C296A",
"9#	c #274889",
"0#	c #3E65A7",
"a#	c #3265AF",
"b#	c #295CA9",
"c#	c #2559A7",
"d#	c #2E61AE",
"e#	c #2A4D8E",
"f#	c #0E2C70",
"g#	c #477EC7",
"h#	c #3992F7",
"i#	c #5AA1F4",
"j#	c #4074BD",
"k#	c #0C2868",
"l#	c #18377A",
"m#	c #3B5D9B",
"n#	c #2D60AC",
"o#	c #2558A6",
"p#	c #265CAB",
"q#	c #275FAF",
"r#	c #2861B3",
"s#	c #335CA0",
"t#	c #1F4083",
"u#	c #3361A9",
"v#	c #4A8DDF",
"w#	c #3D99FF",
"x#	c #62A1EC",
"y#	c #234B91",
"z#	c #325391",
"A#	c #2D5CA6",
"B#	c #2559A8",
"C#	c #265CAC",
"D#	c #275FB0",
"E#	c #2862B4",
"F#	c #2B65B5",
"G#	c #2C5092",
"H#	c #143478",
"I#	c #1D4388",
"J#	c #4983CD",
"K#	c #3C96FB",
"L#	c #4B9EFB",
"M#	c #5B97DF",
"N#	c #0D2C6F",
"O#	c #234485",
"P#	c #345B9E",
"Q#	c #2965B8",
"R#	c #3164AF",
"S#	c #244689",
"T#	c #112F73",
"U#	c #14367B",
"V#	c #4173BB",
"W#	c #3E8FED",
"X#	c #599FF0",
"Y#	c #4276BF",
"Z#	c #113073",
"`#	c #2E4E8E",
" $	c #2B5AA5",
".$	c #2A68BC",
"+$	c #3362AA",
"@$	c #26498B",
"#$	c #18387C",
"$$	c #234A90",
"%$	c #4374BB",
"&$	c #428AE2",
"*$	c #459BFB",
"=$	c #5C97DF",
"-$	c #18397F",
";$	c #0D2A6C",
">$	c #1F3F80",
",$	c #325799",
"'$	c #255AA8",
")$	c #2B6BC1",
"!$	c #306BBC",
"~$	c #2E5599",
"{$	c #204286",
"]$	c #133478",
"^$	c #0E2D71",
"/$	c #183B7F",
"($	c #315CA2",
"_$	c #4379C4",
":$	c #3E8FEE",
"<$	c #3A96FD",
"[$	c #3C98FF",
"}$	c #5B9BEA",
"|$	c #3C6DB5",
"1$	c #0F2D71",
"2$	c #284888",
"3$	c #305CA3",
"4$	c #265DAD",
"5$	c #2760B1",
"6$	c #2862B5",
"7$	c #2965B9",
"8$	c #2A68BD",
"9$	c #2C6EC5",
"0$	c #2E71C8",
"a$	c #3466B0",
"b$	c #2F589D",
"c$	c #2B5194",
"d$	c #274D91",
"e$	c #24488D",
"f$	c #254B90",
"g$	c #2F579C",
"h$	c #3864A9",
"i$	c #3F71B9",
"j$	c #3F80D3",
"k$	c #3890F4",
"l$	c #3994F9",
"m$	c #3A97FD",
"n$	c #4D9BF3",
"o$	c #558CD5",
"p$	c #123378",
"q$	c #0C2765",
"r$	c #133275",
"s$	c #29498A",
"t$	c #2D5EA9",
"u$	c #2863B5",
"v$	c #2966B9",
"w$	c #2D71C9",
"x$	c #2E74CD",
"y$	c #2F77D1",
"z$	c #3079D3",
"A$	c #3678CC",
"B$	c #3974C3",
"C$	c #3B77C7",
"D$	c #3A80D9",
"E$	c #3688E7",
"F$	c #368BED",
"G$	c #378EF1",
"H$	c #3891F5",
"I$	c #3994FA",
"J$	c #3A97FE",
"K$	c #479AF8",
"L$	c #578FD7",
"M$	c #20468C",
"N$	c #0D2A6B",
"O$	c #163579",
"P$	c #2B4D8E",
"Q$	c #2C61AE",
"R$	c #2A69BD",
"S$	c #2B6CC1",
"T$	c #2E74CE",
"U$	c #2F77D2",
"V$	c #307AD6",
"W$	c #317DDA",
"X$	c #3280DE",
"Y$	c #3383E2",
"Z$	c #3486E6",
"`$	c #3589EA",
" %	c #368BEE",
".%	c #378EF2",
"+%	c #3891F6",
"@%	c #4399FA",
"#%	c #5690DA",
"$%	c #29549B",
"%%	c #17377A",
"&%	c #27498A",
"*%	c #2F62AD",
"=%	c #2966BA",
"-%	c #2A69BE",
";%	c #2B6CC2",
">%	c #2C6FC6",
",%	c #2D72CA",
"'%	c #368CEE",
")%	c #378FF2",
"!%	c #4697F4",
"~%	c #528BD5",
"{%	c #2E5AA1",
"]%	c #133276",
"^%	c #224385",
"/%	c #325EA6",
"(%	c #2C69BD",
"_%	c #2C6CC2",
":%	c #2D6FC6",
"<%	c #2E72CA",
"[%	c #2F75CE",
"}%	c #3078D2",
"|%	c #317AD6",
"1%	c #327DDA",
"2%	c #3380DE",
"3%	c #3483E2",
"4%	c #3586E6",
"5%	c #378CEE",
"6%	c #3892F6",
"7%	c #3995FA",
"8%	c #3C97FE",
"9%	c #4B93E7",
"0%	c #4C82CA",
"a%	c #224A90",
"b%	c #0C2A6C",
"c%	c #0D2969",
"d%	c #1D3E81",
"e%	c #294D90",
"f%	c #3367B3",
"g%	c #317BD6",
"h%	c #327EDA",
"i%	c #3689EB",
"j%	c #378CEF",
"k%	c #388FF3",
"l%	c #3A95FB",
"m%	c #4693EC",
"n%	c #4B84CF",
"o%	c #4071B9",
"p%	c #183B81",
"q%	c #0C2766",
"r%	c #0B245C",
"s%	c #143477",
"t%	c #204285",
"u%	c #2C5296",
"v%	c #3565AE",
"w%	c #3472C4",
"x%	c #3078D3",
"y%	c #317BD7",
"z%	c #327EDB",
"A%	c #3381DF",
"B%	c #3484E3",
"C%	c #3586E7",
"D%	c #3D8CE8",
"E%	c #4386D8",
"F%	c #477EC9",
"G%	c #22498F",
"H%	c #0C2764",
"I%	c #1D3F82",
"J%	c #264A8D",
"K%	c #30579B",
"L%	c #3561A7",
"M%	c #3969B2",
"N%	c #3B71BC",
"O%	c #3D74C0",
"P%	c #3E73BD",
"Q%	c #3E72BA",
"R%	c #4070B7",
"S%	c #3A67AD",
"T%	c #2E589F",
"U%	c #0C2560",
"V%	c #123175",
"W%	c #16377B",
"X%	c #1B3D82",
"Y%	c #204489",
"Z%	c #21468B",
"`%	c #1E4287",
" &	c #193D81",
".&	c #14357A",
"+&	c #0C2866",
"@&	c #0B255F",
"                                                                                                ",
"                                                  .                                             ",
"                                                  . +                                           ",
"                                                  . @ #                                         ",
"                                                  . $ % &                                       ",
"                                                  . * = - ;                                     ",
"                                                  . > , ' ) !                                   ",
"                                                  . ~ { ] ^ / (                                 ",
"                                    . . _ : < [ } | 1 2 3 4 5 6 7                               ",
"                                8 9 0 a b c d e f g h i j k l m n o                             ",
"                            . p q r s t u v w x y z A B C D E F G H I                           ",
"                          J K L M N O P Q R S T U V W X Y Z `  ...+.@.#.                        ",
"                      . $.%.&.*.=.-.;.>.,.'.).!.~.{.].^./.(._.:.<.[.}.|..                       ",
"                    . 1.2.3.4.5.6.7.8.9.0.0.a.b.c.d.e.f.g.h.i.j.k.l.m.n.                        ",
"                  . o.p.q.r.s.t.u.v.w.w.x.y.z.A.B.C.D.E.F.G.H.I.J.K.L.                          ",
"                  M.N.O.P.Q.R.S.T.U.V.W.X.Y.Z.`. +.+++@+#+$+%+&+*+=+                            ",
"                -+;+>+,+'+'+)+!+~+{+]+^+/+(+_+:+<+[+}+|+1+2+3+4+5+                              ",
"              . 6+7+8+9+0+a+b+c+d+e+f+g+h+8 i+j+k+. l+m+n+o+p+q+                                ",
"              r+s+t+u+v+w+x+y+z+A+B+C+D+          . E+F+G+H+I+                                  ",
"            . J+K+L+M+N+O+P+Q+R+S+T+U+            . V+W+X+Y+Z+                                  ",
"            . `+ @.@+@@@#@$@%@&@*@=@              . -@;@>@,@                                    ",
"            '@)@!@~@{@]@^@/@(@_@:@                . <@[@}@                                      ",
"          . |@1@2@3@4@5@6@2@7@8@                  . 9@0@                                        ",
"          . a@b@c@d@e@f@g@h@i@j@                  . =@                                          ",
"          . k@l@m@m@n@o@p@q@r@s@                  =@                                            ",
"          . t@u@v@w@x@y@z@A@r+                                                                  ",
"          . B@C@D@D@E@F@G@H@8@                                    I@J@K@L@M@N@O@P@Q@.           ",
"          . R@S@T@U@V@W@X@Y@Z@                                    `@ #.#+#@###$#%#&#.           ",
"          i+*#=#-#;#>#,#'#)#!#.                                   ~#{#]#]#]#]#]#^#/#:@          ",
"          :@(#_#:#<#[#}#|#1#2#.                                 . 3#4#]#]#]#]#]#5#6#7#          ",
"          8#9#0#a#b#c#}#|#d#e#f#                                I@g#h#]#]#]#]#]#i#j#k#          ",
"            l#m#n#o#c#p#q#r#s#t#.                             . u#v#]#]#]#]#]#w#x#y#            ",
"            . z#A#o#B#C#D#E#F#G#H#.                           I#J#K#]#]#]#]#]#L#M#N#            ",
"            j@O#P#o#B#C#D#E#Q#R#S#T#.                     . U#V#W#]#]#]#]#]#]#X#Y#k#            ",
"              Z#`# $B#C#D#E#Q#.$+$@$#$.                 . $$%$&$]#]#]#]#]#]#*$=$-$              ",
"              ;$>$,$'$C#D#E#Q#.$)$!$~${$]$f#. . . . ^$/$($_$:$<$]#]#]#]#]#[$}$|$j+              ",
"                1$2$3$4$5$6$7$8$)$9$0$a$b$c$d$e$f$g$h$i$j$k$l$m$]#]#]#]#]#n$o$p$                ",
"                q$r$s$t$5$u$v$8$)$9$w$x$y$z$A$B$C$D$E$F$G$H$I$J$]#]#]#]#K$L$M$                  ",
"                  N$O$P$Q$u$v$R$S$9$w$T$U$V$W$X$Y$Z$`$ %.%+%I$J$]#]#]#@%#%$%j+                  ",
"                    D+%%&%*%=%-%;%>%,%T$U$V$W$X$Y$Z$`$'%)%+%I$J$]#]#!%~%{%:@                    ",
"                      :@]%^%/%(%_%:%<%[%}%|%1%2%3%4%`$5%)%6%7%J$8%9%0%a%b%                      ",
"                        c%T#d%e%f%:%<%[%}%g%h%2%3%4%i%j%k%h#l%m%n%o%p%q%                        ",
"                          r%. s%t%u%v%w%x%y%z%A%B%C%i%j%D%E%F%i$G%i+                            ",
"                              H%N#H#I%J%K%L%M%N%O%P%Q%R%S%T%I#f#U%                              ",
"                                    N$. V%W%X%Y%Z%`% &.&D+8#                                    ",
"                                            ,@+&+&@&                                            ",
"                                                                                                ",
"                                                                                                "};
