/* XPM */
static char * rotate_left_xpm[] = {
"48 48 648 2",
"  	c None",
". 	c #0D2B6F",
"+ 	c #2C5192",
"@ 	c #2D5292",
"# 	c #9FC9E7",
"$ 	c #2C5292",
"% 	c #9CC6E6",
"& 	c #A9CFE8",
"* 	c #2B5092",
"= 	c #99C3E6",
"- 	c #8FC0E3",
"; 	c #A5CCE8",
"> 	c #2A5092",
", 	c #95C2E8",
"' 	c #8ABCE3",
") 	c #7DB5E0",
"! 	c #A2CAE8",
"~ 	c #2A5093",
"{ 	c #92BFE8",
"] 	c #86BAE4",
"^ 	c #77B1E1",
"/ 	c #79B1E0",
"( 	c #A0C8E8",
"_ 	c #295092",
": 	c #8FBDE8",
"< 	c #82B8E5",
"[ 	c #74AEE1",
"} 	c #74AEE0",
"| 	c #76AFDF",
"1 	c #9CC5E7",
"2 	c #6695CA",
"3 	c #6694C8",
"4 	c #5F8AC1",
"5 	c #4E78B3",
"6 	c #3D65A1",
"7 	c #274A8B",
"8 	c #284F92",
"9 	c #8DBCEA",
"0 	c #7EB5E6",
"a 	c #6FABE3",
"b 	c #70ABE2",
"c 	c #70ACE1",
"d 	c #70ABDF",
"e 	c #84B6E2",
"f 	c #84B6E1",
"g 	c #84B5DF",
"h 	c #85B5DE",
"i 	c #89B6DF",
"j 	c #8DB7DE",
"k 	c #90B8DD",
"l 	c #87AFD7",
"m 	c #668FC2",
"n 	c #3B629F",
"o 	c #0F2E71",
"p 	c #274D92",
"q 	c #8ABBEC",
"r 	c #7BB3EA",
"s 	c #6BAAE5",
"t 	c #6CA9E3",
"u 	c #6DA9E2",
"v 	c #6DAAE1",
"w 	c #6DA9E1",
"x 	c #6EA9DF",
"y 	c #6FA9DE",
"z 	c #6FA9DD",
"A 	c #70A8DC",
"B 	c #70AADB",
"C 	c #72A9DB",
"D 	c #72A9DA",
"E 	c #77ACD9",
"F 	c #82AFD8",
"G 	c #89B1D8",
"H 	c #7DA4CF",
"I 	c #3D649F",
"J 	c #264D92",
"K 	c #88B9EC",
"L 	c #78B2EB",
"M 	c #67A8E6",
"N 	c #67A7E6",
"O 	c #68A7E5",
"P 	c #69A7E3",
"Q 	c #69A6E2",
"R 	c #69A6E1",
"S 	c #6AA6DF",
"T 	c #6AA6DE",
"U 	c #6BA6DD",
"V 	c #6CA6DC",
"W 	c #6DA6DB",
"X 	c #6DA6DA",
"Y 	c #6EA6DA",
"Z 	c #6EA6D9",
"` 	c #6EA7D8",
" .	c #71A7D7",
"..	c #79A9D7",
"+.	c #85ACD3",
"@.	c #7299C6",
"#.	c #264788",
"$.	c #79ADE5",
"%.	c #7FB7EE",
"&.	c #63A6EA",
"*.	c #63A7E8",
"=.	c #64A5E6",
"-.	c #65A5E4",
";.	c #66A5E3",
">.	c #66A4E1",
",.	c #66A3E1",
"'.	c #67A3E0",
").	c #67A3DE",
"!.	c #68A2DD",
"~.	c #69A2DC",
"{.	c #69A3DB",
"].	c #69A3D9",
"^.	c #6AA3D9",
"/.	c #6BA2D8",
"(.	c #6BA3D6",
"_.	c #6CA2D6",
":.	c #6DA2D5",
"<.	c #6EA4D5",
"[.	c #78A6D2",
"}.	c #7DA1CC",
"|.	c #375A96",
"1.	c #254C91",
"2.	c #81B4EA",
"3.	c #71ADEB",
"4.	c #61A5E9",
"5.	c #61A4E8",
"6.	c #62A3E5",
"7.	c #62A2E4",
"8.	c #62A2E2",
"9.	c #62A1E0",
"0.	c #64A1DF",
"a.	c #64A1DD",
"b.	c #64A0DC",
"c.	c #65A0DB",
"d.	c #66A0DA",
"e.	c #669FD8",
"f.	c #679FD7",
"g.	c #689FD6",
"h.	c #689FD5",
"i.	c #6A9FD4",
"j.	c #6AA0D4",
"k.	c #6A9FD3",
"l.	c #71A2D1",
"m.	c #7CA1CB",
"n.	c #456AA3",
"o.	c #234B8F",
"p.	c #7CAEE6",
"q.	c #6DA9E8",
"r.	c #5EA2E9",
"s.	c #5EA1E7",
"t.	c #5FA1E4",
"u.	c #5F9FE3",
"v.	c #5F9FE1",
"w.	c #609EDF",
"x.	c #609EDE",
"y.	c #619DDC",
"z.	c #619DDB",
"A.	c #629CD9",
"B.	c #639CD8",
"C.	c #639CD7",
"D.	c #639BD5",
"E.	c #649BD4",
"F.	c #659CD3",
"G.	c #659BD2",
"H.	c #669CD1",
"I.	c #669BD0",
"J.	c #6A9CCF",
"K.	c #779CC8",
"L.	c #3B609A",
"M.	c #22488D",
"N.	c #75A8E1",
"O.	c #69A4E5",
"P.	c #5B9FE7",
"Q.	c #5C9FE5",
"R.	c #5C9EE3",
"S.	c #5C9DE1",
"T.	c #6BA0DA",
"U.	c #6B9ED7",
"V.	c #6B9DD6",
"W.	c #679BD6",
"X.	c #639BD6",
"Y.	c #5F98D6",
"Z.	c #5E98D6",
"`.	c #5F98D5",
" +	c #6098D3",
".+	c #6098D2",
"++	c #6199D2",
"@+	c #6298D0",
"#+	c #6297D0",
"$+	c #6397CF",
"%+	c #6398CE",
"&+	c #6898CC",
"*+	c #7195C3",
"=+	c #284B8B",
"-+	c #20468B",
";+	c #6FA0DA",
">+	c #64A1E3",
",+	c #589DE6",
"'+	c #599CE4",
")+	c #599BE2",
"!+	c #719CD1",
"~+	c #4973B2",
"{+	c #4872B1",
"]+	c #5079B5",
"^+	c #5E88C0",
"/+	c #6990C5",
"(+	c #6993C7",
"_+	c #6495CD",
":+	c #5D96D3",
"<+	c #5D95D1",
"[+	c #5D94D0",
"}+	c #5D94CF",
"|+	c #5E93CD",
"1+	c #5F94CC",
"2+	c #6093CB",
"3+	c #6895C9",
"4+	c #688CBD",
"5+	c #143377",
"6+	c #1F4589",
"7+	c #6A9AD5",
"8+	c #619CE0",
"9+	c #559AE4",
"0+	c #5699E2",
"a+	c #6B96CE",
"b+	c #0B2765",
"c+	c #0C2969",
"d+	c #0D2A6E",
"e+	c #24478A",
"f+	c #5179B3",
"g+	c #648DC3",
"h+	c #5C90CE",
"i+	c #5A91CE",
"j+	c #5A90CD",
"k+	c #5A90CC",
"l+	c #5A90CA",
"m+	c #5B90C9",
"n+	c #5C90C9",
"o+	c #5D90C9",
"p+	c #6991C2",
"q+	c #476BA4",
"r+	c #1E4388",
"s+	c #6392CF",
"t+	c #5E98DC",
"u+	c #5397E2",
"v+	c #6791CB",
"w+	c #0D2B6E",
"x+	c #315797",
"y+	c #5B81B8",
"z+	c #5E8CC5",
"A+	c #568DCC",
"B+	c #578DCB",
"C+	c #578DCA",
"D+	c #578CC8",
"E+	c #578BC7",
"F+	c #588CC7",
"G+	c #5D8EC6",
"H+	c #6588B9",
"I+	c #18387B",
"J+	c #0B245F",
"K+	c #1D4185",
"L+	c #5E8CC9",
"M+	c #5A94D9",
"N+	c #638FC8",
"O+	c #0C2869",
"P+	c #18397E",
"Q+	c #5479B2",
"R+	c #5989C5",
"S+	c #5389C9",
"T+	c #5388C8",
"U+	c #5388C7",
"V+	c #5588C5",
"W+	c #5488C5",
"X+	c #5589C5",
"Y+	c #618ABF",
"Z+	c #4569A3",
"`+	c #0B2560",
" @	c #1B3E83",
".@	c #5987C5",
"+@	c #5F8BC6",
"@@	c #0C2662",
"#@	c #224487",
"$@	c #567CB4",
"%@	c #5185C5",
"&@	c #5085C6",
"*@	c #5084C5",
"=@	c #5084C4",
"-@	c #5284C2",
";@	c #5285C3",
">@	c #5686C3",
",@	c #597CB1",
"'@	c #0B2561",
")@	c #1B3D81",
"!@	c #5480BE",
"~@	c #0D2A6D",
"{@	c #355997",
"]@	c #547DB8",
"^@	c #4C81C4",
"/@	c #4C81C3",
"(@	c #4C80C0",
"_@	c #4D80C0",
":@	c #4F82C1",
"<@	c #4F82C2",
"[@	c #5B7FB5",
"}@	c #224384",
"|@	c #0C2561",
"1@	c #1A3B80",
"2@	c #0F2E72",
"3@	c #486CA7",
"4@	c #4C7EBF",
"5@	c #497EC1",
"6@	c #497DC0",
"7@	c #497DBE",
"8@	c #4B7DBE",
"9@	c #567EB8",
"0@	c #395C99",
"a@	c #0C296B",
"b@	c #375A99",
"c@	c #4B79B9",
"d@	c #457BBF",
"e@	c #467ABE",
"f@	c #477ABD",
"g@	c #477ABC",
"h@	c #487ABD",
"i@	c #507CBA",
"j@	c #4265A0",
"k@	c #0C2763",
"l@	c #26498A",
"m@	c #4973B1",
"n@	c #4178BE",
"o@	c #4376BB",
"p@	c #4375BA",
"q@	c #4477BB",
"r@	c #4A79B9",
"s@	c #4567A2",
"t@	c #4268A6",
"u@	c #3F74BC",
"v@	c #3F73BA",
"w@	c #4072B8",
"x@	c #4073B9",
"y@	c #4174B9",
"z@	c #4475B8",
"A@	c #4869A4",
"B@	c #4175BD",
"C@	c #4174BD",
"D@	c #4072BB",
"E@	c #3E70B8",
"F@	c #3D6EB6",
"G@	c #3B6CB4",
"H@	c #3A6AB2",
"I@	c #3868B0",
"J@	c #0F2F72",
"K@	c #385C9B",
"L@	c #366BB7",
"M@	c #3D70B8",
"N@	c #3D6FB6",
"O@	c #3E70B7",
"P@	c #3F71B7",
"Q@	c #4769A3",
"R@	c #629FE8",
"S@	c #59A1F5",
"T@	c #529EF5",
"U@	c #519DF3",
"V@	c #509BF1",
"W@	c #4F99EF",
"X@	c #4E98ED",
"Y@	c #5692DD",
"Z@	c #1F448A",
"`@	c #16367A",
" #	c #385E9F",
".#	c #275FAE",
"+#	c #3267B2",
"@#	c #396CB4",
"##	c #3A6DB4",
"$#	c #3B6DB5",
"%#	c #3D6EB4",
"&#	c #41629E",
"*#	c #5A94DE",
"=#	c #4C9FFB",
"-#	c #3B98FF",
";#	c #4B92E6",
">#	c #2E59A1",
",#	c #1D3F81",
"'#	c #3660A3",
")#	c #275EAE",
"!#	c #265CAA",
"~#	c #3064AE",
"{#	c #3669B3",
"]#	c #386AB3",
"^#	c #3F6DB0",
"/#	c #395B98",
"(#	c #0D296B",
"_#	c #5088D1",
":#	c #54A1F8",
"<#	c #4191EE",
"[#	c #3B6BB3",
"}#	c #244688",
"|#	c #3461A9",
"1#	c #275EAF",
"2#	c #265BAB",
"3#	c #2558A7",
"4#	c #3264AF",
"5#	c #3467B1",
"6#	c #3D69AC",
"7#	c #325392",
"8#	c #0C2868",
"9#	c #4074BD",
"0#	c #5AA1F4",
"a#	c #3992F7",
"b#	c #477EC7",
"c#	c #0E2C70",
"d#	c #2A4D8E",
"e#	c #2E61AE",
"f#	c #2559A7",
"g#	c #295CA9",
"h#	c #3265AF",
"i#	c #3E65A7",
"j#	c #274889",
"k#	c #0C296A",
"l#	c #234B91",
"m#	c #62A1EC",
"n#	c #3D99FF",
"o#	c #4A8DDF",
"p#	c #3361A9",
"q#	c #1F4083",
"r#	c #335CA0",
"s#	c #2861B3",
"t#	c #275FAF",
"u#	c #265CAB",
"v#	c #2558A6",
"w#	c #2D60AC",
"x#	c #3B5D9B",
"y#	c #18377A",
"z#	c #0D2C6F",
"A#	c #5B97DF",
"B#	c #4B9EFB",
"C#	c #3C96FB",
"D#	c #4983CD",
"E#	c #1D4388",
"F#	c #143478",
"G#	c #2C5092",
"H#	c #2B65B5",
"I#	c #2862B4",
"J#	c #275FB0",
"K#	c #265CAC",
"L#	c #2559A8",
"M#	c #2D5CA6",
"N#	c #325391",
"O#	c #4276BF",
"P#	c #599FF0",
"Q#	c #3E8FED",
"R#	c #4173BB",
"S#	c #14367B",
"T#	c #112F73",
"U#	c #244689",
"V#	c #3164AF",
"W#	c #2965B8",
"X#	c #345B9E",
"Y#	c #234485",
"Z#	c #18397F",
"`#	c #5C97DF",
" $	c #459BFB",
".$	c #428AE2",
"+$	c #4374BB",
"@$	c #234A90",
"#$	c #18387C",
"$$	c #26498B",
"%$	c #3362AA",
"&$	c #2A68BC",
"*$	c #2B5AA5",
"=$	c #2E4E8E",
"-$	c #113073",
";$	c #3C6DB5",
">$	c #5B9BEA",
",$	c #3C98FF",
"'$	c #3A96FD",
")$	c #3E8FEE",
"!$	c #4379C4",
"~$	c #315CA2",
"{$	c #183B7F",
"]$	c #0E2D71",
"^$	c #133478",
"/$	c #204286",
"($	c #2E5599",
"_$	c #306BBC",
":$	c #2B6BC1",
"<$	c #255AA8",
"[$	c #325799",
"}$	c #1F3F80",
"|$	c #0D2A6C",
"1$	c #123378",
"2$	c #558CD5",
"3$	c #4D9BF3",
"4$	c #3A97FD",
"5$	c #3994F9",
"6$	c #3890F4",
"7$	c #3F80D3",
"8$	c #3F71B9",
"9$	c #3864A9",
"0$	c #2F579C",
"a$	c #254B90",
"b$	c #24488D",
"c$	c #274D91",
"d$	c #2B5194",
"e$	c #2F589D",
"f$	c #3466B0",
"g$	c #2E71C8",
"h$	c #2C6EC5",
"i$	c #2A68BD",
"j$	c #2965B9",
"k$	c #2862B5",
"l$	c #2760B1",
"m$	c #265DAD",
"n$	c #305CA3",
"o$	c #284888",
"p$	c #0F2D71",
"q$	c #20468C",
"r$	c #578FD7",
"s$	c #479AF8",
"t$	c #3A97FE",
"u$	c #3994FA",
"v$	c #3891F5",
"w$	c #378EF1",
"x$	c #368BED",
"y$	c #3688E7",
"z$	c #3A80D9",
"A$	c #3B77C7",
"B$	c #3974C3",
"C$	c #3678CC",
"D$	c #3079D3",
"E$	c #2F77D1",
"F$	c #2E74CD",
"G$	c #2D71C9",
"H$	c #2966B9",
"I$	c #2863B5",
"J$	c #2D5EA9",
"K$	c #29498A",
"L$	c #133275",
"M$	c #0C2765",
"N$	c #29549B",
"O$	c #5690DA",
"P$	c #4399FA",
"Q$	c #3891F6",
"R$	c #378EF2",
"S$	c #368BEE",
"T$	c #3589EA",
"U$	c #3486E6",
"V$	c #3383E2",
"W$	c #3280DE",
"X$	c #317DDA",
"Y$	c #307AD6",
"Z$	c #2F77D2",
"`$	c #2E74CE",
" %	c #2B6CC1",
".%	c #2A69BD",
"+%	c #2C61AE",
"@%	c #2B4D8E",
"#%	c #163579",
"$%	c #0D2A6B",
"%%	c #2E5AA1",
"&%	c #528BD5",
"*%	c #4697F4",
"=%	c #378FF2",
"-%	c #368CEE",
";%	c #2D72CA",
">%	c #2C6FC6",
",%	c #2B6CC2",
"'%	c #2A69BE",
")%	c #2966BA",
"!%	c #2F62AD",
"~%	c #27498A",
"{%	c #17377A",
"]%	c #0C2A6C",
"^%	c #224A90",
"/%	c #4C82CA",
"(%	c #4B93E7",
"_%	c #3C97FE",
":%	c #3995FA",
"<%	c #3892F6",
"[%	c #378CEE",
"}%	c #3586E6",
"|%	c #3483E2",
"1%	c #3380DE",
"2%	c #327DDA",
"3%	c #317AD6",
"4%	c #3078D2",
"5%	c #2F75CE",
"6%	c #2E72CA",
"7%	c #2D6FC6",
"8%	c #2C6CC2",
"9%	c #2C69BD",
"0%	c #325EA6",
"a%	c #224385",
"b%	c #133276",
"c%	c #0C2766",
"d%	c #183B81",
"e%	c #4071B9",
"f%	c #4B84CF",
"g%	c #4693EC",
"h%	c #3A95FB",
"i%	c #388FF3",
"j%	c #378CEF",
"k%	c #3689EB",
"l%	c #327EDA",
"m%	c #317BD6",
"n%	c #3367B3",
"o%	c #294D90",
"p%	c #1D3E81",
"q%	c #0D2969",
"r%	c #22498F",
"s%	c #477EC9",
"t%	c #4386D8",
"u%	c #3D8CE8",
"v%	c #3586E7",
"w%	c #3484E3",
"x%	c #3381DF",
"y%	c #327EDB",
"z%	c #317BD7",
"A%	c #3078D3",
"B%	c #3472C4",
"C%	c #3565AE",
"D%	c #2C5296",
"E%	c #204285",
"F%	c #143477",
"G%	c #0B245C",
"H%	c #0C2560",
"I%	c #2E589F",
"J%	c #3A67AD",
"K%	c #4070B7",
"L%	c #3E72BA",
"M%	c #3E73BD",
"N%	c #3D74C0",
"O%	c #3B71BC",
"P%	c #3969B2",
"Q%	c #3561A7",
"R%	c #30579B",
"S%	c #264A8D",
"T%	c #1D3F82",
"U%	c #0C2764",
"V%	c #14357A",
"W%	c #193D81",
"X%	c #1E4287",
"Y%	c #21468B",
"Z%	c #204489",
"`%	c #1B3D82",
" &	c #16377B",
".&	c #123175",
"+&	c #0B255F",
"@&	c #0C2866",
"                                                                                                ",
"                                            .                                                   ",
"                                          + .                                                   ",
"                                        @ # .                                                   ",
"                                      $ % & .                                                   ",
"                                    * = - ; .                                                   ",
"                                  > , ' ) ! .                                                   ",
"                                ~ { ] ^ / ( .                                                   ",
"                              _ : < [ } | 1 2 3 4 5 6 7 . .                                     ",
"                            8 9 0 a b c d e f g h i j k l m n o                                 ",
"                          p q r s t u v w x y z A B C D E F G H I .                             ",
"                        J K L M N O P Q R S T U V W X Y Z `  ...+.@.#.                          ",
"                      . $.%.&.*.=.-.;.>.,.'.).!.~.{.].^./.(._.:.<.[.}.|..                       ",
"                        1.2.3.4.5.6.7.8.9.0.a.b.c.d.e.e.f.g.h.i.j.k.l.m.n..                     ",
"                          o.p.q.r.s.t.u.v.w.x.y.z.A.B.C.D.D.E.F.G.H.I.J.K.L..                   ",
"                            M.N.O.P.Q.R.S.T.U.V.W.X.Y.Z.`. +.+++@+#+$+%+&+*+=+                  ",
"                              -+;+>+,+'+)+!+~+{+]+^+/+(+_+:+<+[+}+|+1+1+2+3+4+5+                ",
"                                6+7+8+9+0+a+. b+c+d+o e+f+g+h+i+j+k+l+m+n+o+p+q+.               ",
"                                  r+s+t+u+v+.           w+x+y+z+A+B+C+D+E+F+G+H+I+              ",
"                                  J+K+L+M+N+.             O+P+Q+R+S+T+U+V+W+X+Y+Z+.             ",
"                                    `+ @.@+@.               @@#@$@%@&@*@=@-@;@>@,@.             ",
"                                      '@)@!@.                 ~@{@]@^@/@(@_@:@<@[@}@            ",
"                                        |@1@.                   2@3@4@5@6@7@8@4@9@0@.           ",
"                                          @@.                   a@b@c@d@e@f@g@h@i@j@.           ",
"                                            @@                  k@l@m@n@o@p@q@q@r@s@.           ",
"                                                                  I+t@u@v@w@x@y@z@A@.           ",
"          . B@C@D@E@F@G@H@I@J@                                    2@K@L@M@N@O@O@P@Q@.           ",
"          . R@S@T@U@V@W@X@Y@Z@                                    `@ #.#+#@###$#%#&#.           ",
"          ~@*#=#-#-#-#-#-#;#>#                                  . ,#'#)#!#~#{#]#^#/#d+          ",
"          (#_#:#-#-#-#-#-#<#[#.                                 . }#|#1#2#3#4#5#6#7#~@          ",
"          8#9#0#-#-#-#-#-#a#b#J@                                c#d#e#1#2#f#g#h#i#j#k#          ",
"            l#m#n#-#-#-#-#-#o#p#.                             . q#r#s#t#u#f#v#w#x#y#            ",
"            z#A#B#-#-#-#-#-#C#D#E#                          . F#G#H#I#J#K#L#v#M#N#.             ",
"            8#O#P#-#-#-#-#-#-#Q#R#S#.                     . T#U#V#W#I#J#K#L#v#X#Y#a@            ",
"              Z#`# $-#-#-#-#-#-#.$+$@$.                 . #$$$%$&$W#I#J#K#L#*$=$-$              ",
"              c+;$>$,$-#-#-#-#-#'$)$!$~${$]$. . . . c#^$/$($_$:$&$W#I#J#K#<$[$}$|$              ",
"                1$2$3$-#-#-#-#-#4$5$6$7$8$9$0$a$b$c$d$e$f$g$h$:$i$j$k$l$m$n$o$p$                ",
"                  q$r$s$-#-#-#-#t$u$v$w$x$y$z$A$B$C$D$E$F$G$h$:$i$H$I$l$J$K$L$M$                ",
"                  c+N$O$P$-#-#-#t$u$Q$R$S$T$U$V$W$X$Y$Z$`$G$h$ %.%H$I$+%@%#%$%                  ",
"                    ~@%%&%*%-#-#t$u$Q$=%-%T$U$V$W$X$Y$Z$`$;%>%,%'%)%!%~%{%w+                    ",
"                      ]%^%/%(%_%t$:%<%=%[%T$}%|%1%2%3%4%5%6%7%8%9%0%a%b%~@                      ",
"                        c%d%e%f%g%h%a#i%j%k%}%|%1%l%m%4%5%6%7%n%o%p%T#q%                        ",
"                            d+r%8$s%t%u%j%k%v%w%x%y%z%A%B%C%D%E%F%. G%                          ",
"                              H%c#E#I%J%K%L%M%N%O%P%Q%R%S%T%F#z#U%                              ",
"                                    k#w+V%W%X%Y%Z%`% &.&. $%                                    ",
"                                            +&@&@&`+                                            ",
"                                                                                                ",
"                                                                                                "};
